<svg version="1.1" id="Capa_1" xmlns="http://www.w3.org/2000/svg" xmlns:xlink="http://www.w3.org/1999/xlink" x="0px" y="0px" viewBox="0 0 418.919 418.919" style="enable-background:new 0 0 418.919 418.919;" xml:space="preserve" width="300" height="300" xmlns:svgjs="http://svgjs.dev/svgjs"><g width="100%" height="100%" transform="matrix(1,0,0,1,0,0)"><g>
	<g>
		<rect y="90.019" width="285.87" height="160.79" fill="#424242" fill-opacity="1" data-original-color="#000000ff" stroke="none" stroke-opacity="1"/>
	</g>
</g><g>
	<g>
		<path d="M418.919,205.005l-29.388-65.723H298.69v123.641H193.923H96.227H34.511v28.108h29.391&#10;&#9;&#9;&#9;c-0.235,1.598-0.397,3.219-0.397,4.881c0,18.219,14.65,32.988,32.723,32.988s32.723-14.77,32.723-32.988&#10;&#9;&#9;&#9;c0-1.662-0.162-3.283-0.397-4.881H161.6c-0.235,1.598-0.397,3.219-0.397,4.881c0,18.219,14.65,32.988,32.723,32.988&#10;&#9;&#9;&#9;c18.071,0,32.722-14.77,32.722-32.988c0-1.662-0.161-3.283-0.396-4.881h72.442h6.427c-0.235,1.598-0.397,3.219-0.397,4.881&#10;&#9;&#9;&#9;c0,18.219,14.65,32.988,32.723,32.988c18.071,0,32.722-14.77,32.722-32.988c0-1.662-0.161-3.283-0.396-4.881h49.146V205.005z&#10;&#9;&#9;&#9; M96.227,308.824c-7.074,0-12.809-5.781-12.809-12.912c0-1.729,0.343-3.374,0.953-4.881c1.91-4.711,6.495-8.033,11.855-8.033&#10;&#9;&#9;&#9;c5.36,0,9.945,3.322,11.855,8.033c0.61,1.507,0.953,3.152,0.953,4.881C109.035,303.043,103.301,308.824,96.227,308.824z&#10;&#9;&#9;&#9; M193.923,308.824c-7.074,0-12.809-5.781-12.809-12.912c0-1.729,0.343-3.374,0.953-4.881c1.91-4.711,6.495-8.033,11.855-8.033&#10;&#9;&#9;&#9;c5.36,0,9.945,3.322,11.854,8.033c0.611,1.507,0.954,3.152,0.954,4.881C206.731,303.043,200.997,308.824,193.923,308.824z&#10;&#9;&#9;&#9; M337.442,308.824c-7.074,0-12.809-5.781-12.809-12.912c0-1.729,0.343-3.374,0.953-4.881c1.91-4.711,6.495-8.033,11.855-8.033&#10;&#9;&#9;&#9;c5.36,0,9.945,3.322,11.854,8.033c0.611,1.507,0.954,3.152,0.954,4.881C350.251,303.043,344.517,308.824,337.442,308.824z&#10;&#9;&#9;&#9; M320.319,203.768c-0.491,0-0.889-0.398-0.889-0.889v-44.402c0-0.491,0.397-0.889,0.889-0.889h55.921&#10;&#9;&#9;&#9;c1.179,0,2.246,0.698,2.718,1.779l19.4,44.401H320.319z" fill="#424242" fill-opacity="1" data-original-color="#000000ff" stroke="none" stroke-opacity="1"/>
	</g>
</g><g>
</g><g>
</g><g>
</g><g>
</g><g>
</g><g>
</g><g>
</g><g>
</g><g>
</g><g>
</g><g>
</g><g>
</g><g>
</g><g>
</g><g>
</g></g></svg>