<svg id="icon" enable-background="new 0 0 512 512" height="300" viewBox="0 0 512 512" width="300" xmlns="http://www.w3.org/2000/svg" version="1.1" xmlns:xlink="http://www.w3.org/1999/xlink" xmlns:svgjs="http://svgjs.dev/svgjs"><g width="100%" height="100%" transform="matrix(1,0,0,1,0,0)"><g><g><path d="m128.39697 286.17529c27.20557-.4873 54.60645-11.28271 78.37891-25.9165 1.77637-12.07715 14.88721-21.49512 26.46094-21.49512 15.78564 0 24.7959 12.18262 26.53955 26.54053 3.05518 25.14258 6.10791 50.29053 9.15967 75.43408 2.46777 8.94775 4.93506 17.89551 7.3999 26.84424l59.43701 52.1665c13.9292 9.8042.63867 32.91602-13.44434 23.00049l-3.91162-2.41455c-22.11133-15.56836-44.22803-31.13232-66.33936-46.70166-7.01318-4.93994-10.35352-14.66992-12.69824-24.2959-2.70264-.30908-5.18408-.99023-7.42773-2.00391-10.85254 6.271-21.70605 12.5459-32.55664 18.82129l-6.30322 60.10156c0 17.64697-27.36914 17.64697-27.36914 0l-1.71436-40.93359c0-12.64795-4.40918-37.04102 8.76367-44.65723 14.17285-8.19141 28.34814-16.38867 42.52295-24.58105-1.6377-13.47266-3.27295-26.94482-4.90869-40.41699 10.02344-7.04102 18.17432-14.17285 24.09717-19.86279-30.55713 21.81104-68.69141 38.00732-106.08643 38.68018-18.26465.32714-18.23193-27.98243 0-28.30958z" fill="#424242" fill-opacity="1" data-original-color="#231f20ff" stroke="none" stroke-opacity="1"/><g id="XMLID_146_"><g><path d="m56.41846 237.46973v82.61475c0 5.49658 4.4585 9.95508 9.95508 9.95508h82.61426c5.49707 0 9.95557-4.4585 9.95557-9.95508v-3.09033c-10.68652 1.88721-21.42041 2.99609-32.13037 3.18457-25.52539.47168-25.47803-39.08984 0-39.53809 10.7334-.18848 21.49072-1.55664 32.13037-3.84521v-39.32568c0-5.49658-4.4585-9.97852-9.95557-9.97852h-82.61426c-5.49659-.00001-9.95508 4.48192-9.95508 9.97851zm40.97656 19.3916v-21.16064h20.57129v21.16064l-10.28564 10.63965z" fill="#424242" fill-opacity="1" data-original-color="#231f20ff" stroke="none" stroke-opacity="1"/></g></g><path d="m211.59766 180.00879c-7.646 2.49951-13.53711 7.8457-16.90283 14.48877-11.15039 1.72949-19.06787 4.00391-18.88623 5.64404.16113 1.479 6.85107 2.00146 16.38232 1.5459l25.70752-2.38965-26.07178 4.59863c-.56885 4.18604-.22754 8.53125 1.16162 12.78418 4.98047 15.24365 21.40674 23.59229 36.67334 18.58594 15.26709-4.97998 23.59082-21.40869 18.61035-36.6499-5.0039-15.29102-21.40918-23.59375-36.67431-18.60791z" fill="#424242" fill-opacity="1" data-original-color="#231f20ff" stroke="none" stroke-opacity="1"/></g><g fill="#231f20"><path d="m286.44971 52.5083c-85.53906 0-155.13184 69.59229-155.13184 155.13135 0 4.11963.20996 8.18994.52783 12.22852h28.38232c-.38672-4.02588-.60107-8.10205-.60107-12.22852 0-69.93066 56.8916-126.82227 126.82275-126.82227 69.93164 0 126.82324 56.8916 126.82324 126.82227 0 69.93213-56.8916 126.82373-126.82324 126.82373-2.66553 0-5.30371-.11133-7.92725-.27441l6.30762 28.54199c.54102.00684 1.07617.04004 1.61963.04004 85.53955 0 155.13184-69.59229 155.13184-155.13135s-69.59228-155.13135-155.13183-155.13135z" fill="#424242" fill-opacity="1" data-original-color="#231f20ff" stroke="none" stroke-opacity="1"/><path d="m329.51416 227.60986-26.44043-16.41895c.24414-1.146.37793-2.33252.37793-3.55127 0-8.04639-5.59619-14.77148-13.10596-16.53613v-65.80957c0-2.15186-1.74414-3.89551-3.89795-3.89551-2.15234 0-3.896 1.74365-3.896 3.89551v65.8125c-7.5083 1.76465-13.10352 8.48682-13.10352 16.5332 0 9.39063 7.61133 17.00244 17.00146 17.00244 3.22363 0 6.22461-.91211 8.79102-2.47021l27.17285 16.87305c3.15869 1.96045 7.30811.99121 9.26807-2.16699 1.96095-3.15869.99073-7.30859-2.16747-9.26807z" fill="#424242" fill-opacity="1" data-original-color="#231f20ff" stroke="none" stroke-opacity="1"/><path d="m321.54346 396.2666 17.00195 13.4585 77.21729-13.4585z" fill="#424242" fill-opacity="1" data-original-color="#231f20ff" stroke="none" stroke-opacity="1"/><path d="m314.45898 389.88965-9.21093-8.50049h66.59326z" fill="#424242" fill-opacity="1" data-original-color="#231f20ff" stroke="none" stroke-opacity="1"/><path d="m344.92188 416.10156 16.52685 14.16846 80.13281-14.16846z" fill="#424242" fill-opacity="1" data-original-color="#231f20ff" stroke="none" stroke-opacity="1"/></g></g></g></svg>