<svg xmlns="http://www.w3.org/2000/svg" viewBox="0 0 64 64" width="300" height="300" version="1.1" xmlns:xlink="http://www.w3.org/1999/xlink" xmlns:svgjs="http://svgjs.dev/svgjs"><g width="100%" height="100%" transform="matrix(1,0,0,1,0,0)"><g id="packages_stacks" data-name="packages stacks"><path d="M16,14H40a1,1,0,0,0,.51-.14l10-6A1,1,0,0,0,50,6H26a1,1,0,0,0-.51.14l-10,6A1,1,0,0,0,16,14Z" fill="#424242" fill-opacity="1" data-original-color="#000000ff" stroke="none" stroke-opacity="1"/><path d="M45,37v6a1,1,0,0,1-1.67.75l-1.58-1.41c-2.48,2.23-2,2.21-4.5,0l-1.59,1.41A1,1,0,0,1,34,43V37H20v6a1,1,0,0,1-1.67.75l-1.58-1.41c-2.48,2.23-2,2.21-4.5,0l-1.59,1.41A1,1,0,0,1,9,43V37H2a2,2,0,0,1-1-.3V57a1,1,0,0,0,1,1H52a1,1,0,0,0,1-1V36.73A2.05,2.05,0,0,1,52,37ZM23,54H19a1,1,0,0,1,0-2h4A1,1,0,0,1,23,54Zm0-3H19a1,1,0,0,1,0-2h4A1,1,0,0,1,23,51Zm25,3H44a1,1,0,0,1,0-2h4A1,1,0,0,1,48,54Zm0-3H44a1,1,0,0,1,0-2h4A1,1,0,0,1,48,51Z" fill="#424242" fill-opacity="1" data-original-color="#000000ff" stroke="none" stroke-opacity="1"/><path d="M16,36H40a1,1,0,0,0,1-1V14.73A2.05,2.05,0,0,1,40,15H33v6a1,1,0,0,1-1.71.71L30,20.42c-.48.4-1.38,1.66-2,1.58-.61.08-1.52-1.19-2-1.59l-1.29,1.3A1,1,0,0,1,23,21V15H16a2,2,0,0,1-1-.3V35A1,1,0,0,0,16,36Zm16-9h4a1,1,0,0,1,0,2H32A1,1,0,0,1,32,27Zm0,3h4a1,1,0,0,1,0,2H32A1,1,0,0,1,32,30Z" fill="#424242" fill-opacity="1" data-original-color="#000000ff" stroke="none" stroke-opacity="1"/><path d="M25.29,18.29a1,1,0,0,1,1.42,0L28,19.59l1.29-1.3a1.14,1.14,0,0,1,1.71.29V15H25v3.59Z" fill="#424242" fill-opacity="1" data-original-color="#000000ff" stroke="none" stroke-opacity="1"/><path d="M36,37v3.77c.33-.27.78-.82,1.25-.77S39,41.28,39.5,41.66l1.59-1.41c.72-.62,1.38,0,1.91.52V37Z" fill="#424242" fill-opacity="1" data-original-color="#000000ff" stroke="none" stroke-opacity="1"/><path d="M11,37v3.77c.33-.27.78-.82,1.25-.77S14,41.28,14.5,41.66l1.59-1.41c.72-.62,1.38,0,1.91.52V37Z" fill="#424242" fill-opacity="1" data-original-color="#000000ff" stroke="none" stroke-opacity="1"/><path d="M42,35l8.51-5.11A1,1,0,0,0,51,29V8.73l-9,5.4Z" fill="#424242" fill-opacity="1" data-original-color="#000000ff" stroke="none" stroke-opacity="1"/><path d="M52,36a1,1,0,0,0,.51-.14l10-6A1,1,0,0,0,62,28H52c0,1,0,2.16-1,2.71L42.22,36Z" fill="#424242" fill-opacity="1" data-original-color="#000000ff" stroke="none" stroke-opacity="1"/><path d="M2,36H14.28A2,2,0,0,1,14,35V28a9.44,9.44,0,0,0-2.51.14l-10,6A1,1,0,0,0,2,36Z" fill="#424242" fill-opacity="1" data-original-color="#000000ff" stroke="none" stroke-opacity="1"/><path d="M54,36.13V57l8.51-5.11A1,1,0,0,0,63,51V30.73Z" fill="#424242" fill-opacity="1" data-original-color="#000000ff" stroke="none" stroke-opacity="1"/></g></g></svg>